<mxfile host="app.diagrams.net" agent="Mozilla/5.0 (Macintosh; Intel Mac OS X 10_15_7) AppleWebKit/605.1.15 (KHTML, like Gecko) Version/18.5 Safari/605.1.15" version="27.0.6">
  <diagram name="Page-1" id="4UEkbrSL8f6w_j0KNFGy">
    <mxGraphModel dx="465" dy="300" grid="1" gridSize="10" guides="1" tooltips="1" connect="1" arrows="1" fold="1" page="1" pageScale="1" pageWidth="500" pageHeight="800" math="0" shadow="0">
      <root>
        <mxCell id="0" />
        <mxCell id="1" parent="0" />
        <mxCell id="VskwfM5Gs-4LRGzWmn-J-1" value="&lt;div&gt;&lt;br/&gt;&lt;/div&gt;" style="rounded=1;whiteSpace=wrap;html=1;fillColor=none;fontFamily=Times New Roman;fontSize=13;fontStyle=2" vertex="1" parent="1">
          <mxGeometry x="130" y="320" width="250" height="290" as="geometry" />
        </mxCell>
        <mxCell id="VskwfM5Gs-4LRGzWmn-J-14" style="edgeStyle=orthogonalEdgeStyle;rounded=0;orthogonalLoop=1;jettySize=auto;html=1;entryX=0.5;entryY=1;entryDx=0;entryDy=0;fontStyle=2" edge="1" parent="1" source="VskwfM5Gs-4LRGzWmn-J-2" target="VskwfM5Gs-4LRGzWmn-J-7">
          <mxGeometry relative="1" as="geometry" />
        </mxCell>
        <mxCell id="VskwfM5Gs-4LRGzWmn-J-2" value="&lt;span&gt;Input Embed&lt;/span&gt;" style="rounded=0;whiteSpace=wrap;html=1;fontFamily=Times New Roman;fontSize=13;fontStyle=2" vertex="1" parent="1">
          <mxGeometry x="200" y="690" width="120" height="40" as="geometry" />
        </mxCell>
        <mxCell id="VskwfM5Gs-4LRGzWmn-J-4" value="" style="verticalLabelPosition=bottom;verticalAlign=top;html=1;shape=mxgraph.flowchart.or;fontFamily=Times New Roman;fontSize=13;fontStyle=2" vertex="1" parent="1">
          <mxGeometry x="170" y="630" width="40" height="40" as="geometry" />
        </mxCell>
        <mxCell id="VskwfM5Gs-4LRGzWmn-J-36" style="edgeStyle=orthogonalEdgeStyle;rounded=0;orthogonalLoop=1;jettySize=auto;html=1;entryX=0.5;entryY=1;entryDx=0;entryDy=0;fontStyle=2" edge="1" parent="1" source="VskwfM5Gs-4LRGzWmn-J-5" target="VskwfM5Gs-4LRGzWmn-J-41">
          <mxGeometry relative="1" as="geometry" />
        </mxCell>
        <mxCell id="VskwfM5Gs-4LRGzWmn-J-5" value="ProbSparse Self-Attention" style="rounded=1;whiteSpace=wrap;html=1;arcSize=0;fontFamily=Times New Roman;fontSize=13;fontStyle=2" vertex="1" parent="1">
          <mxGeometry x="180" y="490" width="160" height="60" as="geometry" />
        </mxCell>
        <mxCell id="VskwfM5Gs-4LRGzWmn-J-22" style="edgeStyle=orthogonalEdgeStyle;rounded=0;orthogonalLoop=1;jettySize=auto;html=1;entryX=0.374;entryY=0.967;entryDx=0;entryDy=0;entryPerimeter=0;fontStyle=2" edge="1" parent="1" source="VskwfM5Gs-4LRGzWmn-J-7" target="VskwfM5Gs-4LRGzWmn-J-5">
          <mxGeometry relative="1" as="geometry">
            <Array as="points">
              <mxPoint x="260" y="590" />
              <mxPoint x="240" y="590" />
            </Array>
          </mxGeometry>
        </mxCell>
        <mxCell id="VskwfM5Gs-4LRGzWmn-J-7" value="&lt;font&gt;+&lt;/font&gt;" style="ellipse;whiteSpace=wrap;html=1;aspect=fixed;fontFamily=Times New Roman;fontSize=13;fontStyle=2" vertex="1" parent="1">
          <mxGeometry x="245" y="635" width="30" height="30" as="geometry" />
        </mxCell>
        <mxCell id="VskwfM5Gs-4LRGzWmn-J-8" value="&lt;span&gt;Add &amp;amp; Norm&lt;/span&gt;" style="rounded=1;whiteSpace=wrap;html=1;arcSize=0;fontFamily=Times New Roman;fontSize=13;fontStyle=2" vertex="1" parent="1">
          <mxGeometry x="180" y="460" width="160" height="20" as="geometry" />
        </mxCell>
        <mxCell id="VskwfM5Gs-4LRGzWmn-J-9" value="&lt;span&gt;Feed Forward Network&lt;/span&gt;" style="rounded=1;whiteSpace=wrap;html=1;arcSize=0;fontFamily=Times New Roman;fontSize=13;fontStyle=2" vertex="1" parent="1">
          <mxGeometry x="180" y="370" width="160" height="60" as="geometry" />
        </mxCell>
        <mxCell id="VskwfM5Gs-4LRGzWmn-J-11" value="&lt;span&gt;Positional Embed&lt;/span&gt;" style="text;html=1;align=center;verticalAlign=middle;resizable=0;points=[];autosize=1;strokeColor=none;fillColor=none;fontFamily=Times New Roman;fontSize=13;fontStyle=2" vertex="1" parent="1">
          <mxGeometry x="40" y="635" width="120" height="30" as="geometry" />
        </mxCell>
        <mxCell id="VskwfM5Gs-4LRGzWmn-J-13" style="edgeStyle=orthogonalEdgeStyle;rounded=0;orthogonalLoop=1;jettySize=auto;html=1;entryX=0.5;entryY=1;entryDx=0;entryDy=0;fontStyle=2" edge="1" parent="1" source="VskwfM5Gs-4LRGzWmn-J-12" target="VskwfM5Gs-4LRGzWmn-J-2">
          <mxGeometry relative="1" as="geometry" />
        </mxCell>
        <mxCell id="VskwfM5Gs-4LRGzWmn-J-12" value="&lt;span&gt;Inputs&lt;/span&gt;" style="text;html=1;align=center;verticalAlign=middle;resizable=0;points=[];autosize=1;strokeColor=none;fillColor=none;fontSize=13;fontFamily=Times New Roman;fontStyle=2" vertex="1" parent="1">
          <mxGeometry x="230" y="758" width="60" height="30" as="geometry" />
        </mxCell>
        <mxCell id="VskwfM5Gs-4LRGzWmn-J-15" value="" style="endArrow=none;html=1;rounded=0;exitX=1;exitY=0.5;exitDx=0;exitDy=0;exitPerimeter=0;entryX=0;entryY=0.5;entryDx=0;entryDy=0;fontStyle=2" edge="1" parent="1" source="VskwfM5Gs-4LRGzWmn-J-4" target="VskwfM5Gs-4LRGzWmn-J-7">
          <mxGeometry width="50" height="50" relative="1" as="geometry">
            <mxPoint x="210" y="640" as="sourcePoint" />
            <mxPoint x="260" y="590" as="targetPoint" />
          </mxGeometry>
        </mxCell>
        <mxCell id="VskwfM5Gs-4LRGzWmn-J-20" value="" style="ellipse;whiteSpace=wrap;html=1;align=center;aspect=fixed;fillColor=none;strokeColor=none;resizable=0;perimeter=centerPerimeter;rotatable=0;allowArrows=0;points=[];outlineConnect=1;fontStyle=2" vertex="1" parent="1">
          <mxGeometry x="375" y="550" width="10" height="10" as="geometry" />
        </mxCell>
        <mxCell id="VskwfM5Gs-4LRGzWmn-J-28" style="edgeStyle=orthogonalEdgeStyle;rounded=0;orthogonalLoop=1;jettySize=auto;html=1;entryX=0;entryY=0.5;entryDx=0;entryDy=0;fontStyle=2" edge="1" parent="1" target="VskwfM5Gs-4LRGzWmn-J-8">
          <mxGeometry relative="1" as="geometry">
            <mxPoint x="260" y="600" as="sourcePoint" />
            <Array as="points">
              <mxPoint x="160" y="600" />
              <mxPoint x="160" y="470" />
            </Array>
          </mxGeometry>
        </mxCell>
        <mxCell id="VskwfM5Gs-4LRGzWmn-J-31" style="edgeStyle=orthogonalEdgeStyle;rounded=0;orthogonalLoop=1;jettySize=auto;html=1;fontStyle=2" edge="1" parent="1">
          <mxGeometry relative="1" as="geometry">
            <mxPoint x="260" y="590" as="sourcePoint" />
            <mxPoint x="200" y="550" as="targetPoint" />
            <Array as="points">
              <mxPoint x="260" y="590" />
              <mxPoint x="200" y="590" />
            </Array>
          </mxGeometry>
        </mxCell>
        <mxCell id="VskwfM5Gs-4LRGzWmn-J-34" style="edgeStyle=orthogonalEdgeStyle;rounded=0;orthogonalLoop=1;jettySize=auto;html=1;fontStyle=2" edge="1" parent="1">
          <mxGeometry relative="1" as="geometry">
            <mxPoint x="260" y="590" as="sourcePoint" />
            <mxPoint x="280" y="550" as="targetPoint" />
            <Array as="points">
              <mxPoint x="260" y="590" />
              <mxPoint x="280" y="590" />
            </Array>
          </mxGeometry>
        </mxCell>
        <mxCell id="VskwfM5Gs-4LRGzWmn-J-35" value="&lt;span&gt;Add &amp;amp; Norm&lt;/span&gt;" style="rounded=1;whiteSpace=wrap;html=1;arcSize=0;fontFamily=Times New Roman;fontSize=13;fontStyle=2" vertex="1" parent="1">
          <mxGeometry x="180" y="340" width="160" height="20" as="geometry" />
        </mxCell>
        <mxCell id="VskwfM5Gs-4LRGzWmn-J-38" style="edgeStyle=orthogonalEdgeStyle;rounded=0;orthogonalLoop=1;jettySize=auto;html=1;entryX=0;entryY=0.5;entryDx=0;entryDy=0;fontStyle=2" edge="1" parent="1" target="VskwfM5Gs-4LRGzWmn-J-35">
          <mxGeometry relative="1" as="geometry">
            <mxPoint x="260" y="445" as="sourcePoint" />
            <Array as="points">
              <mxPoint x="160" y="445" />
              <mxPoint x="160" y="350" />
            </Array>
          </mxGeometry>
        </mxCell>
        <mxCell id="VskwfM5Gs-4LRGzWmn-J-45" style="edgeStyle=orthogonalEdgeStyle;rounded=0;orthogonalLoop=1;jettySize=auto;html=1;entryX=0.5;entryY=1;entryDx=0;entryDy=0;fontStyle=2" edge="1" parent="1" source="VskwfM5Gs-4LRGzWmn-J-41" target="VskwfM5Gs-4LRGzWmn-J-43">
          <mxGeometry relative="1" as="geometry" />
        </mxCell>
        <mxCell id="VskwfM5Gs-4LRGzWmn-J-41" value="&lt;span&gt;Linear&lt;/span&gt;" style="rounded=0;whiteSpace=wrap;html=1;fontFamily=Times New Roman;fontSize=13;fontStyle=2" vertex="1" parent="1">
          <mxGeometry x="200" y="255" width="120" height="40" as="geometry" />
        </mxCell>
        <mxCell id="VskwfM5Gs-4LRGzWmn-J-43" value="&lt;span&gt;Softmax&lt;/span&gt;" style="rounded=0;whiteSpace=wrap;html=1;fontFamily=Times New Roman;fontSize=13;fontStyle=2" vertex="1" parent="1">
          <mxGeometry x="200" y="190" width="120" height="40" as="geometry" />
        </mxCell>
        <mxCell id="VskwfM5Gs-4LRGzWmn-J-44" value="&lt;span&gt;Output Probabilities&lt;/span&gt;" style="text;html=1;align=center;verticalAlign=middle;resizable=0;points=[];autosize=1;strokeColor=none;fillColor=none;fontSize=13;fontFamily=Times New Roman;fontStyle=2" vertex="1" parent="1">
          <mxGeometry x="195" y="140" width="130" height="30" as="geometry" />
        </mxCell>
        <mxCell id="VskwfM5Gs-4LRGzWmn-J-46" style="edgeStyle=orthogonalEdgeStyle;rounded=0;orthogonalLoop=1;jettySize=auto;html=1;entryX=0.502;entryY=0.929;entryDx=0;entryDy=0;entryPerimeter=0;fontStyle=2" edge="1" parent="1" source="VskwfM5Gs-4LRGzWmn-J-43" target="VskwfM5Gs-4LRGzWmn-J-44">
          <mxGeometry relative="1" as="geometry" />
        </mxCell>
        <mxCell id="VskwfM5Gs-4LRGzWmn-J-47" style="edgeStyle=orthogonalEdgeStyle;rounded=0;orthogonalLoop=1;jettySize=auto;html=1;entryX=0.643;entryY=0.793;entryDx=0;entryDy=0;entryPerimeter=0;fontStyle=2" edge="1" parent="1">
          <mxGeometry relative="1" as="geometry">
            <mxPoint x="280" y="585.0046511627907" as="sourcePoint" />
            <mxPoint x="320" y="550" as="targetPoint" />
            <Array as="points">
              <mxPoint x="280" y="590" />
              <mxPoint x="320" y="590" />
            </Array>
          </mxGeometry>
        </mxCell>
        <mxCell id="VskwfM5Gs-4LRGzWmn-J-48" value="&lt;font style=&quot;font-size: 20px;&quot; face=&quot;Times New Roman&quot;&gt;&lt;sup&gt;Encoder&amp;nbsp;&lt;/sup&gt;&lt;/font&gt;" style="text;html=1;align=center;verticalAlign=middle;resizable=0;points=[];autosize=1;strokeColor=none;fillColor=none;rotation=-90;" vertex="1" parent="1">
          <mxGeometry x="40" y="450" width="80" height="40" as="geometry" />
        </mxCell>
      </root>
    </mxGraphModel>
  </diagram>
</mxfile>
